<?xml version="1.0" encoding="UTF-8"?>
<svg version="1.1" viewBox="0 0 800 800" xml:space="preserve" xmlns="http://www.w3.org/2000/svg" xmlns:xlink="http://www.w3.org/1999/xlink"><defs><style>.a{fill:url(#j);}.b{fill:#42526e;}.aa,.ah,.am,.ao,.at,.av,.aw,.ay,.bb,.c,.j,.m,.n,.o,.t,.x{fill:none;}.d{clip-path:url(#c);}.bf,.e,.f,.y{isolation:isolate;}.f{opacity:0.15;fill:url(#i);}.f,.y{mix-blend-mode:multiply;}.g{clip-path:url(#h);}.h{fill:#c1c7d0;}.h,.m{stroke:#ffab00;}.aa,.ah,.am,.ao,.at,.av,.aw,.ay,.bb,.h,.j,.l,.m,.n,.o,.t,.x{stroke-miterlimit:10;}.h,.j,.l,.t,.x{stroke-width:2.05px;}.i{fill:#ff991f;}.j,.l{stroke:#ff991f;}.k{fill:#ffab00;}.l{fill:#ffe380;}.m,.n,.o{stroke-width:2.35px;}.n{stroke:#36b37e;}.o,.t{stroke:#4c9aff;}.p{fill:#0065ff;}.q{fill:#cfd4db;}.r{fill:#ffc400;}.s{fill:#4c9aff;}.u{fill:#fff0b2;}.v{fill:#2684ff;}.w{fill:#b2d4ff;}.x{stroke:#ffc400;}.y{fill:#dfe1e5;}.be,.z{fill:#fff;}.aa{stroke:#0065ff;stroke-width:2.27px;}.ab{fill:#e0ada6;}.ac{fill:#091e42;}.ad{clip-path:url(#g);}.ae{fill:#b3bac5;}.af{clip-path:url(#f);}.ag,.ap{fill:#f2b18f;}.ah,.aw{stroke:#e2845a;}.ah,.am,.ao,.at,.av,.aw,.ay,.bb{stroke-width:0.75px;}.ah,.ap{fill-rule:evenodd;}.ai{fill:#ff855a;}.aj{fill:#212237;}.ak{fill:#103bb2;}.al{fill:#f2311d;}.am{stroke:#103bb2;}.an{fill:#202263;}.ao{stroke:#2944b7;}.ao,.bb{stroke-linejoin:round;}.aq{fill:#4a63fe;}.ar{fill:#ff756e;}.as{fill:#c0d7ff;}.at{stroke:#1f38b2;}.au{fill:#232868;}.av{stroke:#ba140c;}.ax{fill:#172bce;}.ay{stroke:#202263;}.az{fill:#22252d;}.ba{fill:#182270;}.bb{stroke:#e88872;}.bc{fill:#ebf3ff;}.bd{font-size:31px;font-family:HelveticaNeue, Helvetica Neue;}.be{font-size:33px;font-family:HelveticaNeue-Bold, Helvetica Neue;font-weight:700;letter-spacing:0.044em;}.bf{clip-path:url(#f);}</style><linearGradient id="j" x1="-.006" x2="1.233" y1=".863" y2=".137"><stop stop-color="#ffab00" offset="0"/><stop stop-color="#ffe380" offset="1"/></linearGradient><linearGradient id="i" x1="122.72" x2="125.18" y1="669.01" y2="728.98" gradientTransform="scale(2.1838 .45791)" gradientUnits="userSpaceOnUse"><stop stop-color="#091e42" stop-opacity="0" offset="0"/><stop stop-color="#091e42" offset="1"/></linearGradient><clipPath id="h"><path class="a" transform="translate(-396.5,-38.54)" d="m396.5 398.95 244.05 55.4v-415.81l-244.05 55.35z"/></clipPath><clipPath id="g"><path class="b" transform="translate(-189.65 -315.2)" d="m204.91 317.12c-0.183 0.083-0.7-1.527-1.428-1.859-1.395-0.631-3.7 3.553-7.786 6.242a17.036 17.036 0 0 1-5.113 2.241 1.228 1.228 0 0 0-0.93 1.2v1.162h24.82a21.382 21.382 0 0 0-1.66-9.015z"/></clipPath><clipPath id="f"><path class="c" d="m2.085 0.532 530.3-0.532 8 85.6-540.39-0.456z"/></clipPath><clipPath id="c"><rect width="800" height="800"/></clipPath><linearGradient id="k" x1="505.38" x2="908.02" y1="310.57" y2="74.642" gradientTransform="scale(.78154 1.2795)" gradientUnits="userSpaceOnUse" xlink:href="#j"/></defs><g class="d" clip-path="url(#c)"><g class="e" transform="translate(-47.237 179.58)"><g transform="translate(0 .011)"><g transform="translate(-65,-64)"><path class="f" transform="translate(260.84 191.14)" d="m395.11 290.01 148.71 53.74h107.58l-162.31-53.74z" fill="url(#i)"/><path class="a" transform="translate(261.76 25.128)" d="m396.5 398.95 253.98 55.4v-415.81l-253.98 55.35z" fill="url(#k)"/><g class="g" transform="translate(658.26 63.668)" clip-path="url(#h)"><line class="h" transform="translate(66.872,-20.702)" y2="148.04"/></g><path class="i" transform="translate(269.63 143.29)" d="m434.77 244.15 26.364 4.25c0 14.942-11.9 25.035-26.364 22.163s-26.347-16.718-26.347-30.659 11.9-23.956 26.364-22.163z"/><path class="j" transform="translate(269.25 62.666)" d="m407.85 111.62 115.37-16.22"/><path class="j" transform="translate(269.25 52.459)" d="m407.85 112.16 208.35-32.224"/><path class="j" transform="translate(269.25 47.462)" d="m407.85 107.5 208.35-35.13"/><path class="j" transform="translate(269.25 136.13)" d="m407.85 206.68 128.65 13.281"/><path class="j" transform="translate(269.25 132.29)" d="m407.85 200.86 208.35 18.494"/><path class="j" transform="translate(269.25 128.42)" d="m407.85 195 208.35 15.639"/><path class="j" transform="translate(269.25 124.6)" d="m407.85 189.21 208.35 12.734"/><path class="k" transform="translate(282.15 141.5)" d="m427.39 241.37v-26.563a29.3 29.3 0 0 1 18.644 10.177 31.825 31.825 0 0 1 7.72 20.487z"/><path class="j" transform="translate(269.25 64.706)" d="m407.85 123.58 208.35-25.085"/><path class="j" transform="translate(269.25 74.681)" d="m407.85 113.6v105.75"/><path class="k" transform="translate(271.68 75.103)" d="m487.89 114.24v30.36l-76.368 4.67v-27.343z"/><path class="j" transform="translate(299.49 93.562)" d="m453.65 202.95v-60.746"/><path class="j" transform="translate(299.49 71.037)" d="m453.65 134.34v-26.264"/><path class="j" transform="translate(316.92 68.944)" d="m480.05 104.91v124.08"/><path class="j" transform="translate(334.35 66.844)" d="m506.46 198.67v-96.938"/><path class="j" transform="translate(352.1 64.706)" d="m533.35 98.49v137.61"/><path class="j" transform="translate(299.49 76.925)" d="m585.97 117-44.659 3.852-43.829 3.769-43.829 3.785"/><path class="j" transform="translate(299.49 91.106)" d="m585.97 138.48-44.659 2.092-43.829 2.092-43.829 2.059"/><path class="j" transform="translate(269.27 105.39)" d="m571.55 160.12-43.828 0.315-43.829 0.3-76.019 0.531"/><path class="j" transform="translate(269.25 116.73)" d="m407.85 177.3 208.35 6.774"/><path class="j" transform="translate(269.26 81.481)" d="m483.88 123.9v30.381l-76.019 3.553v-27.376z"/><path class="l" transform="translate(334.35 105.27)" d="m551.11 159.93v35.611l-44.659-1.441v-33.855z"/><path class="j" transform="translate(269.26 64.706)" d="m616.2 98.49v102l-44.659 0.3v33.851l-43.829-1.411-43.832-1.43-76.019-2.474v-54.783l76.019-3.553v-30.315l-76.019 6.558v-23.658l76.019-9.148 43.829-5.279 43.829-5.263z"/><path class="m" transform="translate(187.67 146.44)" d="m284.27 222.3a25.118 25.118 0 0 1 25.118 25.118"/><path class="n" transform="translate(197.66 146.44)" d="m324.52 222.3a25.118 25.118 0 0 0-25.118 25.118"/><line class="o" transform="translate(497.06 364.04)" y1="60.032"/><g transform="translate(-36.681 -186.64)"><path class="o" transform="translate(248.5 263.98)" d="m311.84 215.71a30.424 30.424 0 0 1-30.424-30.424v-12.034"/><path class="o" transform="translate(269.93 293.87)" d="m290.42 185.81a30.424 30.424 0 0 1 30.423 30.423"/><path class="m" transform="translate(176.48 262.86)" d="m281.58 215.24a30.424 30.424 0 0 1-30.424-30.423v-12.035"/><path class="m" transform="translate(197.9 292.76)" d="m260.16 185.34a30.424 30.424 0 0 1 30.423 30.424"/><path class="p" transform="translate(262.74,68.452)" d="m327.96 172.24a40.565 40.565 0 1 1 40.565-40.565 40.565 40.565 0 0 1-40.565 40.565z"/><path class="m" transform="translate(219.27 187.35)" d="m320.28 415.68a51.145 51.145 0 0 1-51.145-51.145v-223.48"/><line class="o" transform="translate(590.7 257.96)" y1="335.5"/><circle class="o" transform="translate(533.04 142.63)" cx="57.669" cy="57.669" r="57.669"/><path class="o" d="m619.84 479.67c28.854-1.1492 36.63-10.338 40.515-14.014l1.6029-1.5166"/><path class="o" d="m590.93 448.25c20.545-5.9734 29.99-30.045 29.99-57.847v-22.881" fill="none" stroke="#4c9aff" stroke-miterlimit="10" stroke-width="2.35px"/><path class="o" transform="translate(300.35 293.87)" d="m320.84 185.81a30.424 30.424 0 0 0-30.423 30.423"/></g><line class="q" transform="translate(376.08 424.08)" x1="159.76"/><path class="p" transform="translate(55.667,-35.319)" d="m56.57 514.8 8.875-2.491 8.6-2.415 8.338-2.339 8.092-2.282 7.877-2.206 7.678-2.149 7.493-2.111 7.34-2.054 7.2-2.016 7.079-1.9 6.971-1.9 6.895-1.9 6.833-1.9 6.8-1.9 13.544-3.8 6.8-1.9 6.833-1.9 6.895-1.9 6.971-1.9 7.079-1.9 7.2-2.016 7.34-2.054 7.493-2.111 7.678-2.149 7.877-2.206 8.092-2.282 8.338-2.339 8.6-2.415 8.875-2.491v-349.95l-8.875-2.491-8.6-2.415-8.338-2.339-8.092-2.282-7.877-2.206-7.674-2.148-7.493-2.111-7.34-2.054-7.186-2.035-7.079-1.9-6.971-1.9-6.895-1.9-6.833-1.9-6.8-1.9-13.544-3.8-6.8-1.9-6.833-1.9-6.894-1.9-6.971-1.9-7.079-1.9-7.2-2.491-7.324-1.9-7.493-2.111-7.678-2.149-7.877-2.206-8.097-2.3-8.292-2.434-8.6-2.415-8.874-2.491v476.26z"/><path class="r" transform="translate(45.902,78.235)" d="m162.3 350.31-9.28 1.81-8.55 1.66-7.985 1.561-7.587 1.478-14.627 2.872-7.355 1.444-7.587 1.478-7.985 1.561-8.55 1.66-9.28 1.81c-2.208 0.432-3.984-1.444-3.984-4.2v-239.8c0-2.739 1.776-4.831 3.984-4.648l9.28 0.78 8.55 0.714 7.985 0.664 7.587 0.631 7.355 0.614 7.272 0.614 7.355 0.614 15.572 1.295 8.55 0.714 9.28 0.78a4.682 4.682 0 0 1 3.984 4.765v213.92a5.379 5.379 0 0 1-3.984 5.213z"/><path class="s" transform="translate(88.68,81.809)" d="m227.12 325.68-9.28 1.81-8.55 1.66-7.985 1.561-7.587 1.478-14.627 2.872-7.355 1.444-7.587 1.478-7.985 1.561-8.55 1.66-9.28 1.81a3.32 3.32 0 0 1-3.984-3.6v-210.96a3.8 3.8 0 0 1 3.984-4.051l9.28 0.78 8.55 0.714 7.985 0.664 7.587 0.631 7.355 0.614 7.272 0.614 7.355 0.614 15.572 1.295 8.55 0.714 9.28 0.78a4.333 4.333 0 0 1 3.984 4.167v185.08a4.981 4.981 0 0 1-3.984 4.616z"/><path class="t" transform="translate(45.895,72.555)" d="m69.52 110.38 9.3 0.913 8.616 0.847 8.085 0.8 7.687 0.764 7.421 0.73 14.576 1.428 7.421 0.73 7.687 0.764 8.085 0.8 8.616 0.847 9.3 0.913"/><path class="t" transform="translate(88.681,76.793)" d="m134.33 116.8 9.3 0.913 8.633 0.847 8.085 0.8 7.687 0.764 7.421 0.73 14.576 1.428 7.421 0.73 15.805 1.564 8.517 0.863 9.3 0.913"/><path class="t" transform="translate(45.895,68.825)" d="m69.52 104.73 7.952 0.863 7.006 0.764 13.048 1.428 7.006 0.764 7.952 0.863"/><path class="t" transform="translate(88.681,73.506)" d="m134.33 111.82 7.952 0.863 7.006 0.764 13.048 1.428 7.006 0.764 7.952 0.863"/><path class="u" transform="translate(48.264,82.484)" d="m155.34 162.66-9.114-0.3-16.07-0.515-7.388-0.249-14.41-0.464-7.388-0.249-16.07-0.515-9.114-0.3a3.154 3.154 0 0 1-2.656-3.32v-28.221a2.773 2.773 0 0 1 2.656-3.1l9.114 0.648 8.3 0.6 7.77 0.564 7.388 0.531 14.41 1.03 7.388 0.531 7.77 0.564 8.3 0.6 9.114 0.647a3.088 3.088 0 0 1 2.66 3.16v25.6a2.723 2.723 0 0 1-2.66 2.758z"/><path class="u" transform="translate(48.263,98.817)" d="m155.34 183.83-9.114 0.133-8.3 0.116-7.77 0.1-7.388 0.1-14.41 0.2-7.388 0.1-7.77 0.1-8.3 0.116-9.114 0.133a2.972 2.972 0 0 1-2.656-3.32v-28.225a2.939 2.939 0 0 1 2.656-3.221l9.114 0.232 8.3 0.216 7.77 0.2 7.388 0.183 14.41 0.366 7.388 0.183 7.77 0.2 8.3 0.216 9.114 0.232a2.922 2.922 0 0 1 2.659 3.052v25.6a2.872 2.872 0 0 1-2.659 2.988z"/><path class="k" transform="translate(48.251 115.08)" d="m155.35 206.3-9.114 0.564-8.3 0.515-7.77 0.481-7.421 0.481-14.41 0.896-7.388 0.465-7.77 0.481-8.3 0.515-9.114 0.564a2.806 2.806 0 0 1-2.656-3.138v-28.224a3.1 3.1 0 0 1 2.656-3.32l9.114-0.2 8.3-0.183 7.77-0.183 7.388-0.166 14.41-0.332 7.388-0.166 7.77-0.183 8.3-0.183 9.114-0.2a2.756 2.756 0 0 1 2.656 2.922v25.6a3.055 3.055 0 0 1-2.623 2.994z"/><path class="v" transform="translate(90.501,127.12)" d="m219.3 220.49-9.114 1-8.3 0.913-7.77 0.847-7.388 0.8-21.798 2.36-7.77 0.847-8.3 0.913-9.114 1a2.457 2.457 0 0 1-2.656-2.607v-24.9a3.038 3.038 0 0 1 2.656-3.088l9.114-0.631 8.3-0.581 7.77-0.531 7.388-0.515 14.41-1 7.388-0.515 7.77-0.531 8.3-0.581 9.114-0.631a2.407 2.407 0 0 1 2.656 2.407v22.213a2.988 2.988 0 0 1-2.656 2.822z"/><path class="w" transform="translate(91.064,99.893)" d="m220.15 181.28-9.114 0.133-8.3 0.116-7.77 0.1-7.388 0.1-14.41 0.2-7.388 0.1-7.77 0.1-8.3 0.116-9.114 0.133a2.739 2.739 0 0 1-2.656-2.856v-24.9a2.706 2.706 0 0 1 2.656-2.822l9.114 0.232 8.3 0.216 7.77 0.2 7.388 0.183 14.41 0.366 7.388 0.183 7.77 0.2 8.3 0.216 9.114 0.232a2.706 2.706 0 0 1 2.656 2.656v22.221a2.656 2.656 0 0 1-2.656 2.575z"/><path class="w" transform="translate(91.063 113.6)" d="m220.15 200.05-9.114 0.548-8.3 0.5-7.77 0.465-7.388 0.448-14.41 0.864-7.388 0.448-7.77 0.465-8.3 0.5-9.114 0.548a2.59 2.59 0 0 1-2.656-2.739v-24.9a2.855 2.855 0 0 1 2.656-2.955l9.114-0.183 8.3-0.183 7.77-0.166 7.388-0.149 14.41-0.298 7.388-0.149 7.77-0.166 8.3-0.183 9.114-0.2a2.557 2.557 0 0 1 2.656 2.523v22.163a2.822 2.822 0 0 1-2.656 2.806z"/><path class="w" transform="translate(91.063,85.513)" d="m220.15 163.2-9.114-0.3-16.07-0.515-7.388-0.249-14.41-0.464-7.388-0.249-16.07-0.515-9.114-0.3a2.889 2.889 0 0 1-2.656-2.988v-24.9a2.557 2.557 0 0 1 2.656-2.706l9.114 0.647 8.3 0.6 7.77 0.564 7.388 0.531 14.41 1.03 7.388 0.531 7.77 0.564 8.3 0.6 9.114 0.647a2.855 2.855 0 0 1 2.656 2.772v22.163a2.523 2.523 0 0 1-2.656 2.54z"/><path class="r" transform="translate(50.225,85.887)" d="m91.255 140.18a9.812 9.812 0 0 1-2.225 6.392 6.641 6.641 0 0 1-5.362 2.474 7.255 7.255 0 0 1-5.362-2.955 10.907 10.907 0 0 1-2.225-6.641 9.961 9.961 0 0 1 2.225-6.475 6.458 6.458 0 0 1 5.362-2.391 7.488 7.488 0 0 1 5.362 3.038 10.774 10.774 0 0 1 2.225 6.558z"/><path class="r" transform="translate(50.225 102.02)" d="m91.255 164.42a10.227 10.227 0 0 1-2.225 6.491 7.006 7.006 0 0 1-5.362 2.723 6.873 6.873 0 0 1-5.362-2.706 11.024 11.024 0 0 1 0-13.281 6.79 6.79 0 0 1 5.362-2.64 7.089 7.089 0 0 1 5.362 2.79 10.343 10.343 0 0 1 2.225 6.623z"/><path class="s" transform="translate(93.335,88.565)" d="m156.55 143.16a7.919 7.919 0 0 1-2.225 5.578 7.039 7.039 0 0 1-5.362 2.142 7.6 7.6 0 0 1-5.362-2.623 8.882 8.882 0 0 1-2.225-5.894 8.035 8.035 0 0 1 2.22-5.666 6.823 6.823 0 0 1 5.362-2.059 7.869 7.869 0 0 1 5.362 2.689 8.766 8.766 0 0 1 2.225 5.827z"/><path class="s" transform="translate(93.348 102.76)" d="m156.54 164.32a8.3 8.3 0 0 1-2.224 5.675 7.371 7.371 0 0 1-5.362 2.391 7.238 7.238 0 0 1-5.362-2.374 8.5 8.5 0 0 1-2.191-5.811 8.4 8.4 0 0 1 2.225-5.761 7.139 7.139 0 0 1 5.362-2.308 7.471 7.471 0 0 1 5.362 2.441 8.3 8.3 0 0 1 2.192 5.744z"/><path class="s" transform="translate(93.335 116.98)" d="m156.55 185.46a8.666 8.666 0 0 1-2.225 5.794 7.77 7.77 0 0 1-5.362 2.64 6.906 6.906 0 0 1-5.362-2.125 8.118 8.118 0 0 1-2.225-5.678 8.782 8.782 0 0 1 2.225-5.86 7.5 7.5 0 0 1 5.362-2.557 7.122 7.122 0 0 1 5.362 2.191 8 8 0 0 1 2.225 5.595z"/><path class="x" transform="translate(60.195,86.828)" d="m91.18 132 8.7 0.531 7.653 0.465 14.278 0.864 7.653 0.465 8.7 0.531"/><path class="x" transform="translate(60.195,89.911)" d="m91.18 136.67 8.7 0.448 7.653 0.4 7.139 0.382 7.139 0.365 7.653 0.4 8.7 0.448"/><path class="x" transform="translate(60.195,92.968)" d="m91.18 141.3 7.985 0.349 13.746 0.6 7.985 0.349"/><path class="t" transform="translate(102.76 89.469)" d="m155.66 136 8.7 0.531 7.653 0.465 14.278 0.864 7.653 0.465 8.7 0.531"/><path class="t" transform="translate(102.76 92.109)" d="m155.66 140 8.7 0.448 7.653 0.4 7.139 0.365 7.139 0.382 7.653 0.4 8.7 0.448"/><path class="t" transform="translate(102.76 94.816)" d="m155.66 144.1 7.985 0.349 13.746 0.6 7.985 0.349"/><path class="x" transform="translate(60.195 102.34)" d="m91.18 155.5 8.7 0.133 7.653 0.116 14.278 0.232 7.653 0.116 8.7 0.133"/><path class="x" transform="translate(60.195 105.4)" d="m91.18 160.13h46.983"/><path class="x" transform="translate(60.195 108.46)" d="m91.18 164.76h29.7"/><path class="t" transform="translate(102.76 103.02)" d="m155.66 156.52 8.7 0.133 7.653 0.116 14.278 0.232 7.653 0.116 8.766 0.2"/><path class="t" transform="translate(102.76 105.7)" d="m155.66 160.58h46.983"/><path class="t" transform="translate(102.76 108.38)" d="m155.66 164.64h29.7"/><path class="t" transform="translate(102.76 116.65)" d="m155.66 178.7 8.7-0.282 7.653-0.249 21.931-0.713 8.7-0.282"/><path class="t" transform="translate(102.76 119.18)" d="m155.66 182.91 8.7-0.349 7.653-0.315 14.278-0.564 7.653-0.315 8.766-0.365"/><path class="t" transform="translate(102.76 122.02)" d="m155.66 186.8 7.985-0.4 13.746-0.698 7.985-0.4"/><path class="y" transform="translate(69.542 133.82)" d="m198.11 237.11-10.276 1.328-18.179 2.341-8.3 1.079-16.236 2.092-8.3 1.079-8.766 1.129-9.413 1.212-10.279 1.329a2.839 2.839 0 0 1-3-3.154v-30.383a3.686 3.686 0 0 1 3-3.818l10.276-0.93 9.38-0.9 8.766-0.8 8.3-0.747 8.118-0.73 8.118-0.731 8.3-0.747 8.766-0.8 9.413-0.847 10.276-0.93a2.789 2.789 0 0 1 2.988 3v27.376a3.636 3.636 0 0 1-2.955 3.536z"/><path class="z" transform="translate(77.135 129.7)" d="m208.05 229.69-10.094 1.162-9.247 1.063-8.616 1-8.185 0.946-15.97 1.826-8.185 0.946-8.616 1-9.247 1.063-10.09 1.154a2.806 2.806 0 0 1-2.939-3.1v-29.5a3.536 3.536 0 0 1 2.939-3.652l19.341-1.464 8.616-0.647 8.185-0.614 15.97-1.2 8.185-0.614 8.616-0.647 9.247-0.7 10.094-0.764a2.756 2.756 0 0 1 2.938 2.872v26.563a3.486 3.486 0 0 1-2.942 3.307z"/><path class="p" transform="translate(80.263 135.21)" d="m138.35 214.14a11.223 11.223 0 0 1-2.457 6.989 8.949 8.949 0 0 1-5.927 3.437 7.039 7.039 0 0 1-5.927-2.208 9.529 9.529 0 0 1-2.457-6.641 11.372 11.372 0 0 1 2.457-7.089 8.649 8.649 0 0 1 5.927-3.32 7.255 7.255 0 0 1 5.927 2.291 9.4 9.4 0 0 1 2.457 6.541z"/><path class="aa" transform="translate(91.223 133.36)" d="m138.18 206.97 9.646-0.83 24.284-2.093 8.483-0.73 9.646-0.83"/><path class="aa" transform="translate(91.223 136.35)" d="m138.18 211.97 9.646-0.913 8.484-0.814 15.8-1.494 8.483-0.814 9.646-0.913"/><path class="aa" transform="translate(91.223 140.07)" d="m138.18 216.24 9.247-0.963 15.904-1.66 9.247-0.963"/><path class="ab" transform="translate(342.68 26.349)" d="m519.08 40.39"/><path class="ac" transform="translate(329.85,1.091)" d="m499.64 2.13"/><g class="ad" transform="translate(314.85 522.98)" clip-path="url(#g)"><path class="ae" transform="translate(-181.82 -312.64)" d="m206.49 319.08a4.981 4.981 0 0 0-4.981 4.981h5.13v-4.9z"/></g></g></g></g><g transform="translate(197.67 242.31)"><g transform="translate(182.84 169.22)"><path class="ag" transform="translate(-177.67 -166.66)" d="m200.8 196.96 0.738 10.733s-2.578 5.633-8.916 4.986c-6.678-0.681-7.814-4.407-7.814-4.407l3.112-20.228"/><path class="ag" transform="translate(-177.66 -168.75)" d="m202.73 176.78c4.009 4.429 9.359 20.716 2.113 24.51-7.644 4.009-16.877 0.954-19.478-9.529-2.727-11.017 6.825-26.611 17.365-14.981z"/><path class="ah" transform="translate(-176.74 -165.42)" d="m200.6 199.66s-5.577 0.863-8.882-2.442"/><g transform="translate(8.545,21.83)"><path class="ai" transform="translate(-186.05,-188.44)" d="m186.05 188.44"/></g><g transform="translate(8.506,21.784)"><path class="ai" transform="translate(-186.02 -188.4)" d="m186.02 188.47a0.63 0.63 0 0 0 0.068 0.091c0.011 0.023 0.034 0.023 0.057 0.011s0.034-0.034 0.011-0.057a0.63 0.63 0 0 0-0.068-0.091c-0.011-0.023-0.034-0.034-0.057-0.011a0.05 0.05 0 0 0-0.011 0.057z"/></g><g transform="translate(5.87,21.217)"><path class="ag" transform="translate(-183.7 -187.9)" d="m187.6 189.09a2.272 2.272 0 0 0-2-1.193c-2.022-0.023-2.306 2.726-1.442 4.52a5.7 5.7 0 0 0 2.328 2.555c1.42 0.852 2.828 0.659 3.032-1.079"/></g><path class="aj" transform="translate(-178.53 -169.22)" d="m190.25 193.47c1.965 0 1.011-5.145 1.011-5.145a4.854 4.854 0 0 0 4-1.306c1.715-1.692-0.432-3.271-0.432-3.271s3.737 2.51 6.678 1.238a3.123 3.123 0 0 0 2.022-3.441s2.6 2.067 3.862 0.591c2.272-2.658 1.408-5.531-1.329-8s-5.225-1.408-5.225-1.408-3.964-4.361-8.4-3.362c-4.111 0.92-8.484 3.282-8.586 8.609 0 0-3.6-0.965-4.941 3.839-1.227 4.4 0.92 5.872 0.92 5.872s-1.556 3.407-0.25 6.213a7.609 7.609 0 0 0 4.816 3.816s-1.374 3.021 1.919 3.294 3.43-2.237 2.113-3.021c-2.976-1.76-5.077-4.373-2.885-7.121s4.707 2.603 4.707 2.603z"/></g><g transform="translate(146.74 287.02)"><g transform="translate(63.148 184.37)"><rect class="ak" transform="translate(.01 34.595)" width="41.16" height="1.84"/><path class="al" transform="translate(-202.34 -432.95)" d="m208.21 452.33-3.566 0.84s-1.363 4.657-1.885 7.894a37.867 37.867 0 0 0-0.409 6.462l41.16 0.034s-1.079-3.566-10.9-9.325a21.435 21.435 0 0 1-5.838-4.861z"/><path class="ag" transform="translate(-202.27,-435.27)" d="m202.86 437.4 1.715 18.081s1.726 2.09 8.723 2.09a53.921 53.921 0 0 0 13.413-1.885l0.716-20.421"/><line class="am" transform="translate(24.861,23.408)" x1="2.669" y2="3.589"/><line class="am" transform="translate(27.757,25.202)" x1="2.317" y2="3.589"/><line class="am" transform="translate(30.517,26.804)" x1="2.147" y2="3.419"/></g><path class="an" transform="translate(-141.87 -272.54)" d="m228.05 295.41c7.9 92.542 6.167 172.77 6.167 172.77l-31.04 0.943s-10.179-129.51-17.502-148.12c-3.453-8.757-4.452-29.927-0.568-45.146"/><path class="ao" transform="translate(-140.09 -263.58)" d="m195.7 341.85c7.53 33.5 12.141 117.66 12.141 117.66"/><g transform="translate(0 184.37)"><rect class="ak" transform="translate(.01 34.595)" width="41.16" height="1.84"/><path class="al" transform="translate(-146.74 -432.95)" d="m152.61 452.33-3.566 0.84s-1.363 4.657-1.885 7.894a37.867 37.867 0 0 0-0.409 6.462l41.16 0.034s-1.079-3.566-10.9-9.325a21.435 21.435 0 0 1-5.838-4.861z"/><path class="ag" transform="translate(-146.46 -435.27)" d="m150.45 439.84-1.681 15.651s1.726 2.09 8.723 2.09a53.921 53.921 0 0 0 13.413-1.885l4.111-20.421"/><line class="am" transform="translate(24.861,23.408)" x1="2.669" y2="3.589"/><line class="am" transform="translate(27.746,25.202)" x1="2.317" y2="3.589"/><line class="am" transform="translate(30.506,26.804)" x1="2.158" y2="3.419"/></g><path class="ao" transform="translate(-139.4 -269.62)" d="m207.34 297.42c0.17 18.331-6.508 17.173-6.508 17.173"/><path class="an" transform="translate(-146.72 -272.94)" d="m166.74 278.03c-7.621 27.463-3.816 35.243-4.123 46.157-0.568 20.319-15.685 144.57-15.685 144.57l34.425 0.568c-2.964 15.378 36.9-166.37 27.724-196.38"/><path class="ao" transform="translate(-143.56 -269.62)" d="m181.6 297.42c-0.7 7.541-11.4 9.29-11.4 9.29"/><path class="ao" transform="translate(-137.14 -269.62)" d="m217.44 297.42c0.875 8.064 6.894 7.541 6.894 7.541"/><path class="ao" transform="translate(-145.86 -269.85)" d="m172.89 295.68c0 36.924-19.649 170.11-19.649 170.11"/><path class="ao" transform="translate(-140.44 -269.85)" d="m193.14 374.47c7.235-39.116 10.46-78.788 10.46-78.788"/></g><g transform="translate(153.72 201.51)"><g transform="translate(61.925)"><path class="ap" transform="translate(-207.41 -195.78)" d="m234.27 228.35s8.229 13.844 10.744 16.354 21.807-33.3 21.807-33.3l11.028 10.358s-14.288 49.985-28.644 52.324-34.55-21.012-34.55-21.012l-7.246-21.046"/><g transform="translate(54.812)"><path class="ap" transform="translate(-255.67,-197.65)" d="m269 230.94-13.334-9.37c3.941-9.245 12.175-24.385 13.743-23.908s-1.193 8.416-1.738 10.29c0.363-1.329 4.066-1.511 3.964 0.806 0.023-0.557 1.249-0.568 1.658-0.477a2.3 2.3 0 0 1 1.715 2.056 1.1 1.1 0 0 1 1.42-0.114c2.59 1.59 1.738 6.962 0.8 7.382s-1.647-4.043-1.647-4.043-1.261 3.669-1.488 4.248c-0.432 1.1-0.943 2.226-1.465 3.305-1.228 2.522-3.628 9.825-3.628 9.825z"/><path class="ah" transform="translate(-254.83 -196.48)" d="m261.85 212.22c0.977-2.9 2.68-6.769 3.725-5.838 1.227 1.09-0.159 4.384 0.193 6.758 1.181 2.51 0.852 6.008-0.159 7.03"/></g></g><path class="aq" transform="translate(-146.55 -196.77)" d="m199.54 204.46s12.323-1.817 20.569 3.26c9.063 5.588 17.32 24.078 17.32 24.078l-16.037 5.429"/><path class="aq" transform="translate(-151.94 -196.8)" d="m188.52 203.89s0.67 4.259 8.2 4.838c6.837 0.522 8.212-4.236 8.212-4.236s18.093 5.622 22.193 27.463c4.27 22.761 7.337 80.185 7.337 80.185h-74.6s0.8-66.987 8.336-86.783 20.322-21.467 20.322-21.467z"/><g transform="translate(45.229,51.268)"><path class="al" transform="translate(-192.71,-242.79)" d="m192.71 282.54h54.69a3.376 3.376 0 0 0 3.268-2.542l8.212-32.358a3.892 3.892 0 0 0-3.771-4.85h-49.292a3.854 3.854 0 0 0-3.737 2.908z"/><path class="ar" transform="translate(-189.11 -240.84)" d="m219.25 260.72c0 1.976 2.09 3.578 4.668 3.578s4.668-1.6 4.668-3.578-2.09-3.578-4.668-3.578-4.668 1.601-4.668 3.578z"/></g><path class="as" transform="translate(-152.7 -192.01)" d="m154.28 239.21"/><g transform="translate(.605 45.351)"><g transform="translate(40.535,40.104)"><path class="ag" transform="translate(-189.11,-272.89)" d="m205.04 272.89q3.373 0.29 6.746 0.636c3.612 0.375 14.39 0.875 14.663 1.829s-3.589 0.7-4.225 0.772-1.465 0.284-1.465 0.931c0 0.522 1.613 0.784 3.782 0.852 3.68 0.114 11.369 0.556 11.369 0.556-2.408 2.873-14.64 4.623-17.1 4.793a239.86 239.86 0 0 1-29.7-0.034"/></g><path class="ag" transform="translate(-153.42,-237.58)" d="m153.42 239.82s0.92 31.824 7.019 39.9c7.928 10.483 51.45 8.234 51.45 8.234l2.442-9.438s-29.507-6.076-32.755-9.325-1.726-31.608-1.726-31.608"/></g><path class="aq" transform="translate(-152.89 -196.8)" d="m189.46 203.89c-27.565 3.055-38.332 15.662-36.344 42.557l28.905-1.874-1.193-19.41"/><path class="at" transform="translate(-149.57 -193.53)" d="m177.35 241.39v-13.4"/><path class="at" transform="translate(-144.2 -194.44)" d="m220.39 234.2a63.622 63.622 0 0 0-3.5-12.936"/></g></g><g transform="translate(-312.2 252.08)"><path class="ag" transform="translate(5.316,2.654)" d="m550.18 232.77s7.38 15.19 6.9 30.486c-0.252 7.758-15.715 41.86-15.715 41.86s-10.808-22.392-11.647-23.221 8.481-25.537 8.481-26.68-8.533-19.268-8.533-19.268"/><g transform="translate(478.65 278.79)"><g transform="translate(0,57.596)"><path class="ag" transform="translate(-475.67 -329.08)" d="m488.34 329.08 4.858 129.19-11.85 7.454s32.435 1.866 33.494 0.807-1.289-8.345-1.289-8.345l10.106-127.11z"/><path class="aj" transform="translate(-475.93 -323.08)" d="m509.94 460.39 4.854-4.728-0.671-2.5-7.464 7.223-3.575-0.01-12.559-6.28-13.712 8.481a1.853 1.853 0 0 0 0.975 3.428l18.377 0.031 5.891-4.038h1.667l-0.01 4.057 11.972 0.021 0.011-5.672z"/></g><g transform="translate(44.278,59.074)"><path class="ag" transform="translate(-518.12 -330.49)" d="m519.2 330.49 16.469 127.89-11.857 7.433s32.436 1.929 33.494 0.87-1.269-8.355-1.269-8.355l-0.87-126.83z"/><path class="aj" transform="translate(-518.17 -324.55)" d="m552.18 460.61 4.864-4.718-0.66-2.5-7.475 7.2-3.575-0.01-12.549-6.311-13.733 8.46a1.852 1.852 0 0 0 0.964 3.428l18.377 0.073 5.892-4.036 1.667 0.01-0.01 4.057 11.972 0.042 0.021-5.672z"/></g><path class="au" transform="translate(-475.42 -274.02)" d="m544.47 276.6c4.634 2.831 9.823 14.236 12.433 23.776 6.059 22.183 2.547 57.166 2.547 57.166h-72.774s-1.73-60.971 4.812-80.942"/><path class="ao" transform="translate(-475.15 -274.14)" d="m497.61 274.14c-6.321 28.8-5.577 83.521-5.577 83.521"/></g><g transform="translate(419.68 210.08)"><path class="al" transform="translate(-416.36 -208.59)" d="m522.59 208.59s-2.17 2.181-7.37 2.285c-4.34 0.094-6.227-1.814-6.227-1.814s-11.238 0.587-16.26 7.118c-8.628 11.217-1.331 63.707-1.331 63.707h52.983c0.315-30.758 11.595-63.623-21.795-71.3"/><g transform="translate(0,5.479)"><path class="ag" transform="translate(-419.68 -213.82)" d="m439.3 230.5c-2.831-2.778-13.586-15.5-14.362-15.264s1.593 3.575 0.923 3.648-5.347-5.483-6.059-5.042c-0.964 0.6 4.068 6.059 4.068 6.059s-1.122-1.08-1.814-0.325c-0.493 0.535 0.472 2.317 0.472 2.317s-1.227-0.524-1.719 0.042 0.556 1.992 0.556 1.992-0.975-0.262-1.321 0.388c-0.325 0.619 1.73 4.78 7.139 11.333"/></g><path class="ap" transform="translate(-419.41 -207.9)" d="m479.53 229.42s-14.488 16.176-17.748 16.9c-3.187 0.7-28.6-21.2-28.6-21.2l-7.9 7.925s28.5 38.6 41.661 35.989 30.391-24.678 30.391-24.678l-10.476-21.572"/><path class="al" transform="translate(-416.96 -208.57)" d="m509.6 209.04s-16.878 0.44-33.662 21.1l16.838 18.96 13.624-14.428"/><path class="al" transform="translate(-414.42 -208.48)" d="m528.64 210.89c13.429 4.162 23.839 24.887 23.839 24.887l-11.5 10.766"/><line class="av" transform="translate(75.802,31.083)" x2="11.238" y1="9.456"/><path class="av" transform="translate(-413.76 -207.69)" d="m543.86 242.43a104.21 104.21 0 0 0-1.531-15.253"/></g><g transform="translate(505.18 177.85)"><path class="ag" transform="translate(-500.93 -177.13)" d="m508.33 201.58-0.587 8.261a10.408 10.408 0 0 0 7.9 3.229c6.238-0.231 7.747-3.722 7.747-3.722l-3.787-16.574"/><path class="ag" transform="translate(-501.24 -177.79)" d="m507.03 182.92c-3.69 3.973-9.414 17.927-2.642 21.239 7.139 3.491 16.606 1.268 18.922-8.072 2.443-9.823-6.594-23.598-16.28-13.167z"/><path class="aw" transform="translate(-500.91 -176.73)" d="m508.06 204.67s6.028 0.975 10.043-3.669"/><g transform="translate(19.982,15.817)"><path class="ai" transform="translate(-520.3,-192.94)" d="m520.3 192.94"/></g><g transform="translate(19.893,15.778)"><path class="ai" transform="translate(-520.22 -192.9)" d="m520.27 192.92a0.422 0.422 0 0 0-0.052 0.094 0.038 0.038 0 0 0 0.063 0.042 0.427 0.427 0 0 0 0.052-0.094 0.046 0.046 0 0 0-0.01-0.052c-0.021-0.01-0.042-0.01-0.052 0.01z"/></g><g transform="translate(1.877)"><path class="aj" transform="translate(-503.03 -177.85)" d="m507.37 185.15c-1.824 0.765-2.956 1.132-4.34 0.7 0.723-4.55 5.3-9.016 10.064-7.15 4.5-2.212 10.483 0.178 13.3 4.089 2.6 3.617 2.317 8.764 1.4 13.083-0.776 3.669-3.805 7.915-6.175 8.083-2.233-1.227-4.267-2.621-5.829-7.223-3.996-4.928-8.032-9.988-8.42-11.582z"/></g><g transform="translate(11.092,14.592)"><path class="ag" transform="translate(-511.82 -191.77)" d="m512.73 193.21a2.107 2.107 0 0 1 1.614-1.394c1.845-0.377 2.579 1.971 2.107 3.69a5.063 5.063 0 0 1-1.677 2.642c-1.153 0.985-2.464 1.069-2.956-0.409"/></g><path class="aj" transform="translate(-500.4 -176.77)" d="m521.54 201.04s6.982 3.135 8.114 8.743-3.1 9.676-8.114 7.234-2.076-16.773-2.076-16.773"/></g></g><g transform="translate(-42 170.24)"><path class="ax" d="m652.87 466.08h-2.65l3.58-79.47h6.15z"/><line class="ay" transform="translate(684.52,386.61)" x2="16.46" y2="79.78"/><line class="ay" transform="translate(609.76,386.61)" x1="16.45" y2="79.78"/><path class="al" d="m634.02 350.65c0 3.97 0.17 15.67-3.72 20.47-4.28 5.28-9.44 2.78-18.15 6.75-5.75 2.62-4.84 15.94 5.29 15.94h69.37c30.46 0 35.54-38.24 31.92-74.7-3.41-34.29-22.21-46.79-43.66-45.98-25.78 0.97-41.05 33.16-41.05 77.52z"/><rect class="ak" transform="rotate(179.96 331.9 233.16)" width="36.24" height="1.62"/><path class="az" d="m658.82 451.07 3.14 0.74s1.2 4.1 1.66 6.95a33.339 33.339 0 0 1 0.36 5.69l-36.24 0.03s0.95-3.14 9.6-8.21a18.874 18.874 0 0 0 5.14-4.28z"/><line class="at" transform="translate(638.99,455.18)" x2="2.26" y2="2.69"/><line class="at" transform="translate(636.3,456.95)" x2="2.26" y2="2.68"/><line class="at" transform="translate(633.79,458.56)" x2="2.26" y2="2.69"/><path class="ag" d="m662.55 438.03-0.6 13.78s-1.52 1.84-7.68 1.84a47.476 47.476 0 0 1-11.81-1.66l-1.22-18.59"/><rect class="ak" transform="matrix(-.98 .196 -.196 -.98 623.1 459.26)" width="36.24" height="1.62"/><path class="az" d="m615.08 445.57 3.22 0.11a71.42 71.42 0 0 1 2.99 6.49 33.554 33.554 0 0 1 1.47 5.51l-35.54 7.12s0.31-3.27 7.8-9.93a18.931 18.931 0 0 0 4.21-5.2z"/><line class="at" transform="translate(597.34,452.49)" x2="2.76" y2="2.16"/><line class="at" transform="translate(595.07,454.77)" x2="2.77" y2="2.16"/><line class="at" transform="translate(592.94,456.87)" x2="2.77" y2="2.16"/><path class="ag" d="m613.4 432.98 4.89 12.69s-1.13 2.1-7.17 3.31a47.063 47.063 0 0 1-11.91 0.68l-7.92-16.86"/><path class="ba" d="m643.8 337.17s-51.4 5.26-66.41 24.99 10.61 86.27 10.61 86.27l28.91-9.76s-15.07-47.6-10.36-57.56 48.58-7.83 48.58-7.83l28.62-38.99"/><path class="ba" d="m697.18 337.17s7.37 13.53 1.82 28.6c-4.85 13.17-21.48 5.77-30.49 11.25s-4.23 69.26-4.23 69.26l-30.66 0.25s-9.04-60.84-1.32-80.76 34.32-26.78 34.32-26.78"/><path class="ao" d="m678.5 342.3c1.26 6.34 13.72 4.99 13.72 4.99"/><path class="ao" d="m656.71 342.3c-19.93 9.86-25.77 20.51-26.86 30.78"/><path class="ao" d="m688.89 340.07s7.66 10.56 2.11 20.86-24.89 3.72-30.14 14.14-0.76 71-0.76 71"/><path class="ao" d="m632.12 364.36s-27.8 4.91-31.76 15.24 12.46 60.46 12.46 60.46"/><path class="ag" d="m651.46 235.07s-6.82 11.98-3.44 16.84c1.76 2.53 7.99 3.99 11.04 2.32 2.26-1.24 6.91-10.56 6.08-12.48-3.17-7.31-13.68-6.68-13.68-6.68z"/><path class="ag" d="m665.53 250.03 1.25 14.14s-10.29 7.86-16.39-1.05l0.82-11.17z"/><path class="aj" d="m669.19 247.89c0.94-2.64 1.77-4.04 2.07-7.22a3.784 3.784 0 0 0-2.43-4.17s0.48 0.35-1.11-2.45c-1.5-2.64-6.1-2.3-8.89-2.62-3.67-0.41-7.07-2.68-9.16-1.14-0.91 0.67-2.77 5.58 0.27 7.09 1.74 0.86 4.5 0.2 6.47 0.41 3.68 0.4 6.37 1.41 6.93 3.71a6.192 6.192 0 0 1-0.34 3.38 9.378 9.378 0 0 0-0.28 1.1l1.5 0.97c1.91 1.16-1.96 4.59-1.59 6.12 0.2 0.81 1.85 1.08 3.26 0.34 1.4-0.71 2.27-2.64 3.3-5.52z"/><path class="ag" d="m663.28 247.15c1.56-1.77 2.73-1.41 3.32-0.36 0.78 1.4-1.1 4.12-1.93 4.56-1.68 0.88-2.99 0.71-3.05-0.62"/><path class="bb" d="m651.02 254.64a12.733 12.733 0 0 0 8.61-0.83"/><path class="ap" d="m622.23 276.45s-16.83 12.08-20.02 12.08c-3.12 0-22.26-25.64-22.26-25.64l-8.99 5.75s18.58 41.83 31.38 42.11 33.39-16.71 33.39-16.71l-5.3-22.26"/><path class="ap" d="m574.11 272.4 7.86-6.45c-2.6-6.1-11.26-20.79-12.56-20.18s2.07 7.19 2.77 8.76c-0.48-1.12-3.73-0.82-3.36 1.19-0.09-0.48-1.16-0.34-1.51-0.21a2.015 2.015 0 0 0-1.24 2c-0.27-0.32-0.88-0.23-1.25 0.07-2.07 1.71-0.66 6.29 0.21 6.53s0.94-3.72 0.94-3.72 1.55 3.05 1.82 3.52c0.52 0.91 1.1 1.83 1.68 2.71a58.382 58.382 0 0 0 4.64 5.78z"/><path class="ah" d="m577.19 258.66c-1.21-2.4-3.16-5.58-3.97-4.63-0.94 1.1 0.68 3.8 0.66 5.92-0.73 2.34 0 5.34 1 6.11"/><path class="aq" d="m650.27 261.36s-12.32 0-31.9 16.7l15.41 21.97 11.92-18.07"/><path class="aq" d="m632.71 338.76c38.92 10.34 68.26 1.38 68.26 1.38s0.09-75.67-34.37-78.59c-1.79 1.79-4.29 3.56-10.29 2.75a13.536 13.536 0 0 1-6.04-2.94s-17.11 16.89-16.99 32.82c0.15 20.41-1.95 37.51-0.57 44.58z"/><path class="at" d="m633.79 298.31c0.39-8.54 3.24-18.25 3.25-18.52"/><path class="as" d="m645.64 332.78h-48.15a2.973 2.973 0 0 1-2.88-2.24l-7.23-28.49a3.426 3.426 0 0 1 3.32-4.27h43.4a3.393 3.393 0 0 1 3.29 2.56z"/><path class="bc" d="m616.87 315.28c0 1.74-1.84 3.15-4.11 3.15s-4.11-1.41-4.11-3.15 1.84-3.15 4.11-3.15 4.11 1.41 4.11 3.15z"/><path class="ag" d="m635.66 327.87q-2.97 0.255-5.94 0.56c-3.18 0.33-12.67 0.77-12.91 1.61s3.16 0.62 3.72 0.68 1.29 0.25 1.29 0.82c0 0.46-1.42 0.69-3.33 0.75-3.24 0.1-7.51 0-7.51 0 0.99 1.8 10.38 4.71 12.56 4.71a152.17 152.17 0 0 0 22.17-1.37"/><path class="ag" d="m690.74 295.39s-3.9 27.18-9.28 34.28c-6.98 9.23-47.58 7.25-47.58 7.25l-2.15-8.31s27.44-6.81 30.3-9.67 5.8-25.52 5.8-25.52"/><path class="aq" d="m666.6 261.55c19.79 2.06 26.67 19.32 24.97 40.32l-27.11-2.07 0.78-17.19"/><path class="at" d="m665.43 299.87c0.94-5.84 1.89-15.63 1.89-15.63"/><path class="at" d="m690.74 301.81c0.62-3.5 1.08-11.14 1.08-11.14"/></g><text class="be" transform="matrix(.999 -.035 .035 .999 440.61 144)"><tspan x="-22.209" y="0">I.A</tspan></text><g class="bf" transform="translate(9.362 192.2)" clip-path="url(#f)" fill="#000000"><text transform="translate(-9.362 -192.2)" style="shape-inside:url(#rect182);white-space:pre" xml:space="preserve"/><text transform="translate(-9.362 -192.2)" style="shape-inside:url(#rect183);white-space:pre" xml:space="preserve"/></g><text fill="#fefafe" style="shape-inside:url(#rect186);white-space:pre" xml:space="preserve"/><text transform="matrix(0 -2.3005 2.0474 0 250.52 343.63)" fill="#2b1100" fill-opacity=".90837" font-family="Arial" stroke="#000000" stroke-opacity="0" style="shape-inside:url(#rect190);white-space:pre" xml:space="preserve"><tspan x="44.460938" y="48.061006">VIDEO</tspan></text><text transform="matrix(0 -2.3005 2.0474 0 189.96 456.71)" fill="#2b1100" fill-opacity=".90837" font-family="Arial" stroke="#000000" stroke-opacity="0" style="shape-inside:url(#rect190-2);white-space:pre" xml:space="preserve"><tspan x="44.460938" y="48.061006">IMAGE</tspan></text><text transform="matrix(0 -2.3005 2.0474 0 292.34 457.39)" fill="#2b1100" fill-opacity=".90837" font-family="Arial" stroke="#000000" stroke-opacity="0" style="shape-inside:url(#rect190-2-0);white-space:pre" xml:space="preserve"><tspan x="44.460938" y="48.061006">AUDIO</tspan></text><text transform="matrix(0 -2.3005 2.0474 0 383.15 396.75)" fill="#2b1100" fill-opacity=".90837" font-family="Arial" stroke="#000000" stroke-opacity="0" style="shape-inside:url(#rect190-2-0-6);white-space:pre" xml:space="preserve"><tspan x="44.460938" y="48.061006">TEXT</tspan></text><text transform="matrix(0 -2.3005 2.0474 0 425.79 494.15)" fill="#2b1100" fill-opacity=".90837" font-family="Arial" stroke="#000000" stroke-opacity="0" style="shape-inside:url(#rect190-2-0-6-4);white-space:pre" xml:space="preserve"><tspan x="44.460938" y="48.061006">CODE</tspan></text></g></svg>
