<svg version="1.1" viewBox="0.0 0.0 200.0 200.0" fill="none" stroke="none" stroke-linecap="square" stroke-miterlimit="10" xmlns:xlink="http://www.w3.org/1999/xlink" xmlns="http://www.w3.org/2000/svg"><clipPath id="g2b5ad0fd270_1_0.0"><path d="m0 0l200.0 0l0 200.0l-200.0 0l0 -200.0z" clip-rule="nonzero"/></clipPath><g clip-path="url(#g2b5ad0fd270_1_0.0)"><path fill="#ffffff" d="m0 0l200.0 0l0 200.0l-200.0 0z" fill-rule="evenodd"/><path fill="#000000" fill-opacity="0.0" d="m-0.4488189 18.412073l209.16536 0l0 126.42519l-209.16536 0z" fill-rule="evenodd"/><path fill="#000000" d="m147.01202 134.90468l-4.046875 -10.484375l-31.375 0l6.65625 -19.0l17.34375 0l-25.65625 -66.40625l31.140625 0l38.234375 95.890625l-32.296875 0zm-74.796875 0l34.25 -91.5625l14.15625 38.07812l-17.546875 53.484375l-30.859375 0z" fill-rule="nonzero"/><path fill="#000000" fill-opacity="0.0" d="m4.133858 130.13518l200.0 0l0 35.149597l-200.0 0z" fill-rule="evenodd"/><path fill="#000000" d="m47.356056 162.79642l-7.0 0l-1.078125 3.21875l-5.765625 0l7.203125 -19.734375l6.328125 0l7.171875 19.734375l-5.796875 0l-1.0625 -3.21875zm-1.375 -4.203125l-2.125 -6.375l-2.109375 6.375l4.234375 0zm9.124466 -0.453125q0 -2.421875 1.0 -4.234375q1.015625 -1.828125 2.8125 -2.8125q1.8125 -0.984375 4.140625 -0.984375q3.0 0 5.03125 1.640625q2.046875 1.640625 2.640625 4.578125l-5.828125 0q-0.5 -1.546875 -1.953125 -1.546875q-1.046875 0 -1.65625 0.859375q-0.59375 0.859375 -0.59375 2.5q0 1.65625 0.59375 2.53125q0.609375 0.859375 1.65625 0.859375q1.484375 0 1.953125 -1.53125l5.828125 0q-0.59375 2.90625 -2.640625 4.5625q-2.03125 1.65625 -5.03125 1.65625q-2.328125 0 -4.140625 -0.984375q-1.796875 -0.984375 -2.8125 -2.796875q-1.0 -1.828125 -1.0 -4.296875zm16.996063 0q0 -2.421875 0.875 -4.234375q0.890625 -1.828125 2.40625 -2.8125q1.53125 -0.984375 3.40625 -0.984375q1.625 0 2.796875 0.65625q1.1875 0.640625 1.828125 1.71875l0 -2.171875l5.484375 0l0 15.703125l-5.484375 0l0 -2.1875q-0.640625 1.09375 -1.84375 1.75q-1.1875 0.640625 -2.78125 0.640625q-1.875 0 -3.40625 -0.984375q-1.515625 -0.984375 -2.40625 -2.8125q-0.875 -1.84375 -0.875 -4.28125zm11.3125 0q0 -1.5 -0.828125 -2.359375q-0.828125 -0.875 -2.03125 -0.875q-1.234375 0 -2.046875 0.859375q-0.8125 0.84375 -0.8125 2.375q0 1.515625 0.8125 2.40625q0.8125 0.875 2.046875 0.875q1.203125 0 2.03125 -0.859375q0.828125 -0.875 0.828125 -2.421875zm7.727585 0q0 -2.421875 0.875 -4.234375q0.890625 -1.828125 2.421875 -2.8125q1.546875 -0.984375 3.421875 -0.984375q1.515625 0 2.703125 0.640625q1.1875 0.625 1.859375 1.71875l0 -7.171875l5.515625 0l0 20.71875l-5.515625 0l0 -2.1875q-0.640625 1.09375 -1.828125 1.75q-1.171875 0.640625 -2.765625 0.640625q-1.875 0 -3.40625 -0.984375q-1.515625 -0.984375 -2.40625 -2.8125q-0.875 -1.84375 -0.875 -4.28125zm11.3125 0q0 -1.5 -0.828125 -2.359375q-0.828125 -0.875 -2.03125 -0.875q-1.234375 0 -2.046875 0.859375q-0.8125 0.84375 -0.8125 2.375q0 1.515625 0.8125 2.40625q0.8125 0.875 2.046875 0.875q1.203125 0 2.03125 -0.859375q0.828125 -0.875 0.828125 -2.421875zm23.633835 -0.15625q0 0.640625 -0.09375 1.28125l-10.375 0q0.078125 1.296875 0.703125 1.921875q0.640625 0.625 1.609375 0.625q1.375 0 1.96875 -1.234375l5.84375 0q-0.359375 1.625 -1.40625 2.90625q-1.046875 1.265625 -2.65625 2.0q-1.59375 0.734375 -3.515625 0.734375q-2.328125 0 -4.140625 -0.984375q-1.796875 -0.984375 -2.828125 -2.796875q-1.015625 -1.828125 -1.015625 -4.296875q0 -2.453125 1.0 -4.25q1.015625 -1.8125 2.8125 -2.796875q1.8125 -0.984375 4.171875 -0.984375q2.3125 0 4.109375 0.953125q1.796875 0.953125 2.796875 2.734375q1.015625 1.78125 1.015625 4.1875zm-5.609375 -1.375q0 -1.015625 -0.671875 -1.578125q-0.671875 -0.578125 -1.671875 -0.578125q-1.015625 0 -1.65625 0.546875q-0.640625 0.546875 -0.84375 1.609375l4.84375 0zm28.373085 -6.4375q2.96875 0 4.65625 1.796875q1.703125 1.78125 1.703125 4.890625l0 9.15625l-5.5 0l0 -8.421875q0 -1.265625 -0.703125 -1.96875q-0.6875 -0.703125 -1.890625 -0.703125q-1.203125 0 -1.90625 0.703125q-0.703125 0.703125 -0.703125 1.96875l0 8.421875l-5.484375 0l0 -8.421875q0 -1.265625 -0.6875 -1.96875q-0.6875 -0.703125 -1.890625 -0.703125q-1.234375 0 -1.9375 0.703125q-0.6875 0.703125 -0.6875 1.96875l0 8.421875l-5.5 0l0 -15.703125l5.5 0l0 2.0625q0.71875 -1.0 1.875 -1.59375q1.171875 -0.609375 2.6875 -0.609375q1.734375 0 3.09375 0.75q1.359375 0.75 2.140625 2.125q0.84375 -1.28125 2.203125 -2.078125q1.375 -0.796875 3.03125 -0.796875zm26.266754 0.140625l-9.96875 23.171875l-5.96875 0l3.75 -8.140625l-6.4375 -15.03125l6.109375 0l3.296875 8.90625l3.1875 -8.90625l6.03125 0z" fill-rule="nonzero"/><path fill="#000000" d="m36.92651 104.873985l28.629917 0l0 29.921257l-28.629917 0z" fill-rule="evenodd"/><path stroke="#ffffff" stroke-width="1.0" stroke-linejoin="round" stroke-linecap="butt" d="m36.92651 104.873985l28.629917 0l0 29.921257l-28.629917 0z" fill-rule="evenodd"/><path fill="#ff0000" d="m18.989502 65.262344l0 0c0 -17.812271 14.439697 -32.25197 32.25197 -32.25197l0 0c8.553753 0 16.757164 3.3979645 22.805588 9.446384c6.048416 6.048416 9.446381 14.251831 9.446381 22.805584l0 0c0 17.812271 -14.439697 32.25197 -32.25197 32.25197l0 0c-17.812271 0 -32.25197 -14.439697 -32.25197 -32.25197z" fill-rule="evenodd"/></g></svg>